<?xml version="1.0" encoding="utf-8"?>
<!-- Generator: Adobe Illustrator 17.0.0, SVG Export Plug-In . SVG Version: 6.00 Build 0)  -->
<!DOCTYPE svg PUBLIC "-//W3C//DTD SVG 1.1//EN" "http://www.w3.org/Graphics/SVG/1.1/DTD/svg11.dtd">
<svg version="1.1" id="Layer_1" xmlns="http://www.w3.org/2000/svg" xmlns:xlink="http://www.w3.org/1999/xlink" x="0px" y="0px"
	 width="458.977px" height="218.989px" viewBox="0 0 458.977 218.989" enable-background="new 0 0 458.977 218.989"
	 xml:space="preserve">
<text transform="matrix(1 0 0 1 68.9099 191.5965)"><tspan x="0" y="0" fill="#3276BA" font-family="'Montserrat-Black'" font-size="48.5856">master</tspan><tspan x="218.099" y="0" fill="#3276BA" font-family="'Montserrat-ExtraLight'" font-size="48.5856"> </tspan><tspan x="230.391" y="0" fill="#3276BA" font-family="'Montserrat-Light'" font-size="48.5856">shop</tspan></text>
<g>
	<path fill="#3276BA" d="M59.313,132.138c0.078-0.112,0.16-0.219,0.239-0.331c-4.429-4.528-8.701-9.374-12.205-14.231
		c-0.301,0.463-0.61,0.92-0.907,1.387c-4.9,7.718-9.145,15.741-10.742,24.908c-1.233,7.078-0.191,13.583,4.48,19.273
		c2.489,3.032,5.324,5.576,9.327,6.324c3.078,0.575,5.489-0.803,7.251-3.154c1.629-2.173,1.364-4.534-0.042-6.813
		c-0.906-1.469-1.872-2.884-3.108-4.098c-1.574-1.547-2.291-3.467-2.213-5.62c0.06-1.664,0.432-3.299,0.998-4.887
		C54.039,140.284,56.527,136.121,59.313,132.138z"/>
	<path fill="#3276BA" d="M299.374,91.599c-5.361-0.115-10.417,1.195-15.363,3.089c-10.468,4.008-20.107,9.714-30.092,14.71
		c-5.157,2.58-10.416,4.931-15.914,6.704c-0.544,0.176-1.219,0.504-1.714-0.016c-0.378-0.397-0.151-0.966-0.003-1.448
		c2.319-7.532,4.5-15.109,7.432-22.439c4.206-10.514,8.653-20.932,12.579-31.555c1.894-5.124,2.969-10.362,1.673-15.887
		c-1.348-5.75-7.619-11.02-13.524-11.048c-4.899-0.023-9.541,1.139-13.779,3.59c-9.213,5.329-17.152,12.292-24.683,19.725
		c-5.902,5.824-11.871,11.582-17.5,17.682c-4.559,4.94-9.263,9.745-13.918,14.595c-0.68,0.709-1.078,1.716-2.446,2.249
		c0.612-1.459,1.068-2.619,1.58-3.754c3.804-8.433,7.582-16.877,11.442-25.285c2.83-6.163,5.034-12.574,7.602-18.84
		c1.9-4.636,2.901-9.45,2.698-14.498c-0.257-6.376-4.802-12.431-10.512-14.001c-3.613-0.993-7.278-0.912-10.813-0.064
		c-6.998,1.679-13.696,4.279-20.176,7.43c-9.082,4.415-17.377,10.123-25.699,15.76c-3.323,2.251-6.572,4.603-9.776,7.019
		c9.68,0.696,20.359,1.882,26.931,3.887c4.365-3.001,8.84-5.839,13.335-8.647c5.203-3.251,10.674-5.979,16.529-7.871
		c1.545-0.5,1.836-0.221,1.599,1.376c-0.396,2.669-1.246,5.219-2.222,7.713c-5.988,15.312-12.584,30.352-20.006,45.033
		c-3.392,6.71-7.188,13.257-8.965,20.69c-1.081,4.518-0.722,8.804,1.335,12.979c1.538,3.121,4.072,4.832,7.409,5.395
		c4.76,0.803,8.914-0.922,12.646-3.577c10.535-7.496,19.21-16.987,27.879-26.463c6.855-7.494,13.539-15.146,20.803-22.26
		c5.632-5.516,11.026-11.294,17.466-15.916c1.985-1.425,3.934-2.933,6.507-4.109c-0.332,1.005-0.542,1.715-0.8,2.407
		c-1.08,2.888-2.193,5.764-3.262,8.656c-3.732,10.097-7.624,20.133-11.793,30.056c-2.471,5.882-4.859,11.766-5.567,18.175
		c-0.796,7.201,0.408,13.77,6.46,18.522c2.799,2.197,5.952,3.647,9.709,3.733c6.582,0.151,12.553-1.997,18.348-4.653
		c9.196-4.214,18.035-9.119,26.735-14.292c6.19-3.681,12.682-6.731,19.963-7.681c1.759-0.229,3.536-0.009,5.284-0.409
		c3.238-0.741,5.321-3.491,5.043-6.773C309.42,96.376,304.318,91.704,299.374,91.599z"/>
</g>
<g>
	<path fill="#7F7F7F" d="M48.02,63.038c0.757,2.527,1.469,4.906,2.183,7.285c0.432,1.441,0.921,2.867,1.282,4.326
		c0.236,0.953,0.656,1.283,1.686,1.275c7.169-0.053,14.339,0.01,21.508-0.055c1.811-0.016,3.414,1.344,3.722,3.062
		c0.338,1.887-0.734,3.692-2.557,4.272C75.445,83.33,75,83.35,74.576,83.35c-6.431,0.009-12.862,0.006-19.293,0.006
		c-0.332,0-0.663,0-1.115,0c0.305,1.044,0.571,1.982,0.852,2.915c0.912,3.028,1.849,6.049,2.73,9.087
		c0.197,0.679,0.503,0.893,1.212,0.89c7.539-0.028,15.078,0.046,22.616-0.06c2.151-0.03,3.773,1.775,3.78,3.67
		c0.009,2.104-1.643,3.808-3.795,3.812c-6.677,0.013-13.354,0.004-20.032,0.004c-0.366,0-0.733,0-1.188,0
		c0.068,0.306,0.104,0.537,0.171,0.758c0.706,2.353,1.434,4.7,2.113,7.061c0.156,0.542,0.393,0.783,0.958,0.71
		c0.272-0.035,0.553-0.003,0.83-0.003c18.955,0,37.909-0.01,56.864,0.029c1.004,0.002,1.368-0.325,1.612-1.226
		c0.594-2.192,1.285-4.358,1.934-6.535c0.068-0.227,0.11-0.462,0.188-0.793c-0.422,0-0.754,0-1.087,0
		c-3.262,0-6.523,0.007-9.785-0.002c-1.944-0.006-3.556-1.724-3.539-3.744c0.017-1.986,1.589-3.678,3.502-3.689
		c4.092-0.023,8.185-0.023,12.277,0.006c0.685,0.005,1.011-0.155,1.218-0.872c1.071-3.717,2.213-7.414,3.328-11.119
		c0.078-0.26,0.141-0.525,0.241-0.898c-0.41,0-0.737,0-1.065,0c-7.631,0-15.262,0-22.893,0c-2.145,0-3.761-1.564-3.794-3.665
		c-0.034-2.104,1.632-3.79,3.8-3.792c8.37-0.009,16.739-0.02,25.109,0.019c0.906,0.004,1.258-0.276,1.504-1.134
		c1.081-3.778,2.242-7.534,3.373-11.298c0.034-0.114,0.047-0.234,0.088-0.447c-0.407,0-0.767,0-1.127,0
		c-9.662,0-19.324,0.002-28.986-0.002c-1.728-0.001-3.063-0.909-3.651-2.449c-0.56-1.467-0.192-3.226,1.066-4.177
		c0.596-0.45,1.43-0.824,2.157-0.827c11.723-0.052,23.447-0.046,35.17-0.034c3.187,0.003,4.819,2.248,3.895,5.31
		c-5.613,18.608-11.231,37.216-16.851,55.822c-0.624,2.065-1.918,3.023-4.079,3.023c-21.447,0.002-42.894,0.001-64.341-0.001
		c-2.25,0-3.497-0.909-4.144-3.048c-5.635-18.633-11.261-37.269-16.897-55.902c-1.67-5.522-3.37-11.035-5.029-16.56
		c-0.201-0.668-0.5-0.899-1.216-0.892c-3.723,0.038-7.446,0.038-11.169-0.001c-1.61-0.017-2.732-0.877-3.314-2.359
		c-0.586-1.492-0.322-2.925,0.877-3.957c0.649-0.559,1.617-1.03,2.45-1.046c4.983-0.097,9.969-0.064,14.953-0.043
		c1.704,0.007,2.947,1.041,3.523,2.861c1.361,4.302,2.705,8.61,4.056,12.915c0.312,0.996,0.67,1.981,0.917,2.993
		c0.169,0.695,0.496,0.9,1.206,0.897c7.846-0.027,15.693-0.017,23.539-0.018c1.108,0,2.215-0.003,3.323,0
		c2.191,0.006,3.806,1.618,3.785,3.775c-0.02,2.107-1.641,3.717-3.76,3.718c-8,0.003-16.001,0.001-24.001,0.001
		C49.152,63.037,48.663,63.038,48.02,63.038z"/>
	<path fill="#7F7F7F" d="M110.332,148.175c-6.559,0.007-11.791-5.207-11.794-11.753c-0.003-6.541,5.194-11.772,11.751-11.827
		c6.444-0.054,11.842,5.327,11.824,11.787C122.094,142.931,116.863,148.169,110.332,148.175z M117.054,136.425
		c0.016-3.743-2.969-6.756-6.702-6.763c-3.741-0.007-6.783,2.976-6.806,6.677c-0.024,3.759,3.016,6.827,6.766,6.829
		C114.03,143.169,117.037,140.162,117.054,136.425z"/>
	<path fill="#7F7F7F" d="M63.27,136.428c-0.021-6.525,5.27-11.856,11.746-11.833c6.532,0.023,11.844,5.313,11.829,11.78
		c-0.016,6.552-5.246,11.794-11.775,11.8C68.507,148.181,63.291,142.988,63.27,136.428z M81.785,136.385
		c0.001-3.739-2.981-6.713-6.739-6.723c-3.727-0.01-6.756,2.997-6.765,6.716c-0.009,3.717,3.009,6.77,6.712,6.79
		C78.761,143.187,81.784,140.168,81.785,136.385z"/>
	<path fill="#7F7F7F" d="M96.789,55.545c2.008-0.264,3.79,1.686,3.792,3.651c0.002,2.115-1.669,3.827-3.78,3.841
		c-2.136,0.014-3.765-1.647-3.823-3.782C92.923,57.31,94.714,55.263,96.789,55.545z"/>
	<path fill="#7F7F7F" d="M103.167,103.674c-2.134-0.004-3.696-1.593-3.746-3.714c-0.047-1.997,1.712-3.901,3.891-3.76
		c2.105,0.137,3.729,1.658,3.715,3.767C107.012,102.098,105.366,103.679,103.167,103.674z"/>
	<path fill="#7F7F7F" d="M85.798,75.894c1.901-0.269,3.786,1.622,3.756,3.672c-0.032,2.158-1.622,3.787-3.786,3.79
		c-2.147,0.003-3.812-1.653-3.818-3.774C81.944,77.613,83.692,75.615,85.798,75.894z"/>
</g>
<g>
	<path fill="#3276BA" d="M698.051,130.282c0.078-0.112,0.16-0.219,0.239-0.331c-4.429-4.528-8.701-9.374-12.205-14.231
		c-0.301,0.463-0.61,0.92-0.907,1.387c-4.9,7.718-9.145,15.741-10.742,24.908c-1.232,7.078-0.191,13.583,4.48,19.273
		c2.489,3.032,5.324,5.576,9.327,6.324c3.078,0.575,5.489-0.803,7.251-3.154c1.629-2.173,1.364-4.534-0.042-6.813
		c-0.906-1.469-1.872-2.884-3.108-4.098c-1.574-1.547-2.291-3.467-2.213-5.62c0.06-1.664,0.432-3.299,0.998-4.887
		C692.776,138.427,695.265,134.265,698.051,130.282z"/>
	<path fill="#3276BA" d="M938.111,89.742c-5.361-0.115-10.417,1.195-15.363,3.089c-10.468,4.008-20.107,9.714-30.092,14.71
		c-5.157,2.58-10.416,4.931-15.914,6.704c-0.544,0.176-1.219,0.504-1.714-0.016c-0.378-0.397-0.151-0.966-0.003-1.448
		c2.319-7.532,4.5-15.109,7.432-22.439c4.206-10.514,8.653-20.932,12.58-31.555c1.894-5.124,2.969-10.362,1.673-15.887
		c-1.348-5.75-7.619-11.02-13.524-11.048c-4.899-0.023-9.541,1.139-13.779,3.59c-9.213,5.329-17.152,12.292-24.683,19.725
		c-5.902,5.824-11.871,11.582-17.5,17.682c-4.559,4.94-9.263,9.745-13.918,14.595c-0.68,0.709-1.078,1.716-2.446,2.249
		c0.612-1.459,1.068-2.619,1.58-3.754c3.804-8.433,7.582-16.878,11.442-25.285c2.83-6.163,5.034-12.574,7.602-18.84
		c1.9-4.636,2.901-9.45,2.698-14.498c-0.257-6.376-4.802-12.431-10.512-14.001c-3.613-0.993-7.278-0.912-10.813-0.064
		c-6.998,1.679-13.696,4.279-20.176,7.43c-9.082,4.415-17.377,10.123-25.699,15.76c-3.323,2.251-6.572,4.603-9.776,7.019
		c9.68,0.696,20.359,1.882,26.931,3.887c4.365-3.001,8.84-5.839,13.335-8.647c5.203-3.251,10.674-5.979,16.529-7.871
		c1.545-0.5,1.836-0.221,1.599,1.376c-0.396,2.669-1.246,5.219-2.222,7.713c-5.988,15.312-12.584,30.352-20.006,45.033
		c-3.392,6.71-7.188,13.257-8.965,20.69c-1.081,4.518-0.722,8.804,1.335,12.979c1.538,3.121,4.072,4.832,7.409,5.395
		c4.76,0.803,8.914-0.922,12.646-3.577c10.535-7.496,19.21-16.987,27.879-26.463c6.855-7.494,13.539-15.146,20.803-22.26
		c5.632-5.516,11.026-11.294,17.466-15.916c1.985-1.425,3.934-2.933,6.507-4.109c-0.332,1.005-0.542,1.715-0.8,2.407
		c-1.08,2.888-2.193,5.764-3.262,8.656c-3.732,10.097-7.624,20.133-11.793,30.056c-2.471,5.882-4.859,11.766-5.567,18.175
		c-0.796,7.201,0.408,13.77,6.46,18.522c2.799,2.197,5.952,3.647,9.709,3.733c6.582,0.151,12.553-1.997,18.348-4.653
		c9.196-4.214,18.035-9.119,26.734-14.292c6.19-3.681,12.683-6.731,19.963-7.681c1.758-0.229,3.536-0.009,5.284-0.409
		c3.238-0.741,5.321-3.491,5.043-6.773C948.157,94.52,943.055,89.848,938.111,89.742z"/>
</g>
<g>
	<path fill="#7F7F7F" d="M686.758,61.181c0.757,2.527,1.469,4.906,2.183,7.285c0.432,1.441,0.921,2.867,1.282,4.326
		c0.236,0.953,0.656,1.283,1.686,1.275c7.169-0.053,14.339,0.01,21.508-0.055c1.811-0.016,3.414,1.344,3.722,3.062
		c0.338,1.887-0.734,3.692-2.557,4.272c-0.399,0.127-0.844,0.147-1.268,0.147c-6.431,0.009-12.862,0.006-19.293,0.006
		c-0.332,0-0.663,0-1.115,0c0.305,1.044,0.571,1.982,0.852,2.915c0.912,3.028,1.849,6.049,2.73,9.087
		c0.197,0.679,0.503,0.893,1.212,0.89c7.539-0.028,15.078,0.046,22.616-0.06c2.151-0.03,3.773,1.775,3.78,3.67
		c0.009,2.104-1.643,3.808-3.795,3.812c-6.677,0.013-13.354,0.004-20.031,0.004c-0.366,0-0.733,0-1.188,0
		c0.068,0.306,0.104,0.537,0.171,0.758c0.706,2.353,1.434,4.7,2.113,7.061c0.156,0.542,0.393,0.783,0.958,0.71
		c0.272-0.035,0.553-0.003,0.83-0.003c18.955,0,37.909-0.01,56.864,0.029c1.004,0.002,1.368-0.325,1.612-1.226
		c0.594-2.192,1.285-4.358,1.934-6.535c0.068-0.227,0.11-0.462,0.188-0.793c-0.422,0-0.755,0-1.087,0
		c-3.262,0-6.523,0.007-9.785-0.002c-1.944-0.006-3.556-1.724-3.539-3.744c0.017-1.986,1.589-3.678,3.502-3.689
		c4.092-0.023,8.185-0.023,12.277,0.006c0.685,0.005,1.011-0.155,1.218-0.872c1.071-3.717,2.213-7.414,3.328-11.119
		c0.078-0.26,0.141-0.525,0.241-0.898c-0.41,0-0.737,0-1.065,0c-7.631,0-15.262,0-22.893,0c-2.145,0-3.761-1.564-3.794-3.665
		c-0.034-2.104,1.632-3.79,3.8-3.792c8.37-0.009,16.739-0.02,25.109,0.019c0.906,0.004,1.258-0.276,1.504-1.134
		c1.081-3.778,2.242-7.534,3.373-11.298c0.034-0.114,0.047-0.234,0.088-0.448c-0.407,0-0.767,0-1.127,0
		c-9.662,0-19.324,0.002-28.986-0.002c-1.728-0.001-3.063-0.909-3.651-2.449c-0.56-1.467-0.192-3.226,1.066-4.177
		c0.596-0.45,1.43-0.824,2.157-0.827c11.723-0.052,23.447-0.046,35.17-0.034c3.187,0.003,4.819,2.248,3.895,5.31
		c-5.613,18.608-11.231,37.216-16.851,55.822c-0.624,2.065-1.918,3.023-4.079,3.023c-21.447,0.002-42.894,0.001-64.341-0.001
		c-2.25,0-3.497-0.909-4.143-3.048c-5.635-18.633-11.261-37.269-16.897-55.902c-1.67-5.522-3.37-11.035-5.029-16.56
		c-0.201-0.668-0.5-0.899-1.216-0.892c-3.723,0.038-7.446,0.038-11.169-0.001c-1.61-0.017-2.732-0.877-3.314-2.359
		c-0.586-1.492-0.322-2.925,0.877-3.957c0.649-0.559,1.617-1.03,2.45-1.046c4.983-0.097,9.969-0.064,14.953-0.043
		c1.704,0.007,2.947,1.041,3.523,2.861c1.361,4.302,2.705,8.61,4.056,12.915c0.312,0.996,0.67,1.981,0.917,2.993
		c0.169,0.695,0.496,0.9,1.206,0.897c7.846-0.027,15.693-0.017,23.539-0.018c1.108,0,2.216-0.003,3.323,0
		c2.191,0.006,3.805,1.618,3.785,3.775c-0.02,2.107-1.641,3.717-3.76,3.718c-8,0.003-16.001,0.001-24.001,0.001
		C687.889,61.181,687.4,61.181,686.758,61.181z"/>
	<path fill="#7F7F7F" d="M749.07,146.319c-6.559,0.007-11.791-5.207-11.794-11.753c-0.003-6.541,5.194-11.772,11.751-11.827
		c6.444-0.054,11.842,5.327,11.824,11.787C760.832,141.075,755.6,146.312,749.07,146.319z M755.791,134.568
		c0.016-3.743-2.969-6.756-6.702-6.763c-3.741-0.007-6.783,2.976-6.806,6.677c-0.024,3.759,3.016,6.827,6.766,6.829
		C752.768,141.312,755.775,138.305,755.791,134.568z"/>
	<path fill="#7F7F7F" d="M702.007,134.572c-0.021-6.525,5.27-11.856,11.746-11.833c6.532,0.023,11.844,5.313,11.829,11.78
		c-0.016,6.552-5.246,11.794-11.775,11.8C707.245,146.324,702.029,141.132,702.007,134.572z M720.522,134.528
		c0.001-3.739-2.981-6.713-6.739-6.723c-3.727-0.01-6.756,2.997-6.765,6.716c-0.009,3.717,3.009,6.77,6.712,6.79
		C717.498,141.331,720.522,138.312,720.522,134.528z"/>
	<path fill="#7F7F7F" d="M735.526,53.689c2.008-0.264,3.79,1.686,3.792,3.651c0.002,2.115-1.669,3.827-3.78,3.841
		c-2.136,0.014-3.765-1.647-3.823-3.782C731.661,55.454,733.451,53.407,735.526,53.689z"/>
	<path fill="#7F7F7F" d="M741.904,101.818c-2.134-0.004-3.696-1.593-3.747-3.714c-0.047-1.997,1.712-3.901,3.891-3.76
		c2.105,0.137,3.729,1.658,3.715,3.767C745.749,100.241,744.103,101.822,741.904,101.818z"/>
	<path fill="#7F7F7F" d="M724.536,74.038c1.901-0.269,3.786,1.622,3.756,3.672c-0.032,2.158-1.622,3.787-3.786,3.79
		c-2.147,0.003-3.812-1.653-3.818-3.774C720.682,75.756,722.429,73.759,724.536,74.038z"/>
</g>
<text transform="matrix(1 0 0 1 855.8573 179.7945)" fill="#3276BA" font-family="'Tajawal-Black'" font-size="61.6425"> رتسام</text>
</svg>
